<?xml version="1.0" encoding="utf-8"?><!DOCTYPE svg PUBLIC "-//W3C//DTD SVG 1.1//EN" "http://www.w3.org/Graphics/SVG/1.1/DTD/svg11.dtd"><svg version="1.1" xmlns="http://www.w3.org/2000/svg" width="124.6" height="546.8571" viewBox="0 0 124.6 546.8571"><g fill="#843900"><g transform="translate(3.5,0)"><g transform="scale(0.1714,0.1714) translate(157.5,63)"><path d="M 321.05 28.7 L 316.8 28.05 L 314.2 29.35 L 308.3 31 L 305.4 31.3 L 293.65 31.65 L 279.6 34.25 L 276.3 34.25 L 273.05 33.6 L 270.2 32.3 L 268.9 31.3 L 267.6 30 L 263 13.05 L 260.7 7.5 L 259.4 6.5 L 258.1 5.2 L 256.15 1.95 L 254.2 0 L 252.55 0 L 251.9 0.3 L 250.95 0.95 L 249.6 7.8 L 248.95 28.05 L 248.65 30 L 246.05 32.95 L 242.45 34.9 L 238.5 35.55 L 236.55 35.55 L 231.65 37.2 L 221.85 38.5 L 197.05 36.55 L 193.8 37.85 L 184 39.5 L 157.65 39.15 L 147.85 40.45 L 144.9 41.45 L 142.95 40.45 L 140.65 39.8 L 136.4 39.15 L 132.15 39.15 L 123.7 40.15 L 117.8 40.15 L 113.9 39.5 L 111.95 38.5 L 110.6 37.5 L 109.3 36.2 L 108.35 34.9 L 107.7 33.25 L 107.35 31.65 L 107.35 26.75 L 109 12.4 L 106.4 7.15 L 105.4 5.85 L 104.4 4.85 L 103.1 4.2 L 101.5 3.9 L 99.2 4.55 L 97.55 5.85 L 95.6 8.45 L 93.3 12.7 L 92.65 16.3 L 92.65 18.25 L 93 20.2 L 93.95 23.8 L 95.3 31.3 L 95.3 33.25 L 94.6 36.85 L 93.65 38.5 L 92 39.8 L 90.4 40.45 L 88.75 40.8 L 80 40.45 L 76.75 39.8 L 70.2 39.5 L 57.15 40.8 L 53.9 40.45 L 47.35 38.8 L 28.1 36.55 L 23.85 43.4 L 22.55 45.05 L 19.3 47 L 17.3 47.3 L 17.65 48.3 L 18.3 48.95 L 20.6 49.6 L 24.2 51.25 L 25.15 52.2 L 26.45 55.15 L 28.75 56.8 L 31.35 57.45 L 34.3 57.45 L 43.45 55.8 L 46.35 56.15 L 48.65 55.15 L 51.25 55.15 L 58.45 56.15 L 60.75 56.15 L 63 55.45 L 65.65 54.15 L 70.55 55.8 L 73.15 56.15 L 80.35 56.15 L 85.85 56.8 L 87.75 58.1 L 90.05 61 L 90.7 64.3 L 88.75 74.1 L 88.75 77.35 L 89.4 79 L 90.4 80.6 L 91.7 81.9 L 95.6 105.05 L 98.55 116.8 L 100.15 121.7 L 104.4 130.5 L 107.35 134.75 L 114.2 141.6 L 118.8 144.85 L 129.55 148.45 L 131.85 148.75 L 133.8 148.1 L 135.1 147.45 L 136.1 146.8 L 160.25 151.7 L 175.25 150.75 L 186.6 149.1 L 190.2 147.8 L 191.85 146.8 L 196.75 145.85 L 214.7 146.5 L 218.3 145.85 L 219.9 146.5 L 221.2 146.8 L 222.55 146.8 L 224.8 146.15 L 231.65 138.65 L 235.25 135.7 L 236.55 135.05 L 241.15 130.8 L 245.05 125.6 L 251.9 112.85 L 258.45 88.1 L 260.7 69.2 L 260.7 64.3 L 261.35 59.4 L 263.65 50.25 L 264.65 48.3 L 267.6 44.35 L 269.55 42.4 L 271.8 41.1 L 276.65 39.8 L 284.8 39.8 L 301.8 41.45 L 307.35 40.8 L 312.9 38.5 L 315.15 38.15 L 325.6 38.15 L 330.2 36.85 L 332.15 35.55 L 330.85 33.6 L 327.6 31 L 325.6 30 L 321.05 28.7 M 236.55 48.3 L 238.2 47 L 240.5 45.7 L 242.75 45.05 L 245.05 44.7 L 247.35 45.05 L 248.3 45.35 L 248.95 46 L 249.6 47 L 249.95 47.95 L 250.25 49.6 L 249.95 51.25 L 249.6 62.35 L 245.7 89.1 L 245.4 94.65 L 244.05 98.8 L 243.1 105.05 L 241.8 109.25 L 240.5 110.9 L 234.3 115.8 L 232.65 116.8 L 231.35 117.1 L 229.7 116.8 L 227.75 115.8 L 226.1 115.8 L 224.5 115.15 L 223.5 114.5 L 222.55 113.5 L 221.55 112.2 L 221.2 110.6 L 219.25 105.35 L 218.6 104.35 L 217.95 103.7 L 217 103.4 L 215.65 103.7 L 212.4 106 L 210.75 106 L 209.45 105.35 L 208.5 104.7 L 207.85 103.7 L 207.2 102.4 L 206.85 101.1 L 206.55 98.55 L 204.9 96.6 L 203.25 95.3 L 197.4 92.35 L 195.75 91.05 L 194.8 89.4 L 194.1 86.8 L 193.15 85.5 L 193.15 84.2 L 193.45 82.9 L 194.1 81.6 L 196.4 79.3 L 204.25 74.1 L 209.15 70.15 L 221.85 57.75 L 233.6 49.25 L 236.55 48.3 M 214.35 125.6 L 213.7 126.55 L 213.05 127.25 L 209.45 130.15 L 204.25 131.8 L 188.25 134.1 L 187.25 135.05 L 185.95 135.7 L 184.65 136.05 L 183.35 136.05 L 180.75 135.7 L 178.5 135.05 L 170.7 135.4 L 146.85 132.1 L 143.6 128.55 L 142.95 127.55 L 142.95 124.95 L 146.85 119.05 L 158.95 107.95 L 176.55 95.65 L 179.45 95.65 L 180.75 96.3 L 181.7 96.6 L 183.35 98.25 L 187.25 103.4 L 187.9 104.05 L 188.9 104.7 L 189.9 105.05 L 191.2 105.05 L 193.8 107.95 L 212.1 120.7 L 214.35 123.65 L 214.35 125.6 M 168.05 45.7 L 169.4 44.7 L 171 44.7 L 176.55 47.65 L 177.55 48.3 L 182.05 47 L 186.6 46.35 L 188.9 46.35 L 191.2 46.65 L 193.15 47.3 L 195.1 48.3 L 197.05 48.6 L 199.35 48.6 L 203.9 47.65 L 208.15 47.65 L 208.8 47.95 L 210.75 49.25 L 211.45 50.25 L 209.15 54.8 L 205.55 58.75 L 201.3 62 L 198.05 65.6 L 186.3 72.1 L 181.05 76.35 L 176.55 80.95 L 171.35 79.3 L 161.55 73.75 L 139 57.1 L 138.35 56.15 L 138.05 55.45 L 138.05 54.5 L 138.35 52.2 L 139 50.25 L 145.9 48.6 L 167.1 47.3 L 168.05 45.7 M 113.9 56.8 L 125 62 L 130.2 65.6 L 134.1 69.5 L 147.2 77 L 156.65 81.9 L 160.25 82.9 L 164.15 85.5 L 167.1 88.75 L 167.1 91.4 L 166.75 92.35 L 166.1 93.35 L 164.8 94.65 L 163.2 95.65 L 158.95 97.25 L 156.95 98.25 L 155.35 99.5 L 150.1 105.35 L 143.9 110.25 L 130.2 118.75 L 128.55 121.35 L 126.6 123.65 L 125.65 124.3 L 124.35 124.95 L 121.7 125.6 L 116.8 122 L 113.55 117.75 L 110.95 112.85 L 109.3 107.95 L 104.1 85.85 L 105.7 74.4 L 107.35 66.55 L 110.95 59.7 L 113.9 56.8"></path><path d="M 287.75 170 L 273.05 170.95 L 271.15 170 L 266.9 169.35 L 255.8 171.95 L 243.4 172.25 L 207.5 174.9 L 198.7 176.5 L 189.55 177.5 L 159.9 179.15 L 154.35 178.5 L 150.75 176.85 L 149.8 175.85 L 132.8 178.15 L 116.8 181.4 L 114.55 179.8 L 111.95 178.5 L 97.9 175.85 L 95.6 174.9 L 93.3 175.85 L 91.35 176.2 L 87.45 176.2 L 85.55 175.85 L 81.95 175.85 L 80 176.85 L 78.05 175.55 L 76.1 174.9 L 72.15 174.25 L 68.25 174.9 L 64.65 176.2 L 57.8 180.1 L 52.25 184.35 L 53.25 184.05 L 54.85 184.05 L 55.5 184.35 L 56.5 185.35 L 58.45 190.25 L 59.45 191.55 L 60.75 192.2 L 64.65 192.2 L 68.9 192.85 L 70.85 192.85 L 72.8 192.5 L 74.8 191.2 L 75.45 190.55 L 76.4 189.25 L 78.05 188.25 L 79.65 187.95 L 81 188.25 L 85.85 190.9 L 87.75 191.2 L 89.75 191.2 L 91.7 192.85 L 93.65 196.45 L 93.65 197.75 L 93.95 198.7 L 93.65 200 L 92.35 201.65 L 90.4 205.55 L 89.4 211.75 L 89.75 226.15 L 88.75 234.65 L 87.75 236.25 L 87.1 237.9 L 86.45 240.85 L 86.45 244.1 L 85.85 247.35 L 84.25 250.6 L 80.65 261 L 75.75 290.4 L 72.15 300.85 L 70.55 304.1 L 68.9 309.65 L 62.7 339 L 58.8 349.45 L 59.1 351.45 L 59.1 352.75 L 57.8 355.35 L 55.85 357.65 L 55.2 358.95 L 54.85 360.25 L 55.5 361.2 L 55.85 362.2 L 55.85 363.85 L 55.2 365.45 L 50.6 370.35 L 50.3 372 L 50.3 373.95 L 48.65 377.55 L 45.7 382.1 L 45.4 383.75 L 45.4 385.4 L 40.15 393.2 L 39.85 395.15 L 39.85 396.8 L 40.85 400.05 L 40.85 401.4 L 40.5 403.35 L 39.5 405.25 L 31.7 413.4 L 31.05 415.65 L 29.75 417.65 L 23.5 423.2 L 22.55 424.8 L 22.2 425.8 L 22.2 426.75 L 24.2 427.75 L 24.2 429.7 L 23.5 430.35 L 22.85 430.7 L 22.2 430.7 L 21.9 430.35 L 20.9 429.7 L 20.25 428.75 L 18.65 429.7 L 17.3 431 L 16.35 432.3 L 14.4 436.9 L 12.4 439.5 L 9.8 441.8 L 6.55 447 L 3.3 454.85 L 0 459.75 L 4.6 461.7 L 9.15 459.4 L 13.1 456.8 L 20.6 450.6 L 27.1 443.4 L 32.65 434.6 L 35.3 434.3 L 39.5 432.3 L 42.15 429.4 L 47.05 414.35 L 50.95 408.8 L 52.9 407.5 L 53.55 404.55 L 54.55 402.05 L 59.45 392.25 L 60.75 387.35 L 61.05 384.4 L 61.7 381.8 L 65.95 371.65 L 67.6 366.1 L 68.55 364.8 L 69.9 363.5 L 71.2 360.9 L 72.15 357.95 L 72.8 354.7 L 74.45 341 L 80.65 322.7 L 83.6 308.35 L 87.1 278.3 L 95.3 246.7 L 96.6 238.55 L 101.5 220.9 L 105.05 202.65 L 105.7 201.35 L 106.7 200 L 107.7 199.05 L 109 198.4 L 115.85 196.1 L 116.5 194.8 L 118.45 193.5 L 119.45 193.15 L 128.55 193.15 L 129.55 192.85 L 130.55 192.2 L 131.5 191.2 L 132.15 190.25 L 143.6 188.9 L 178.5 186.3 L 223.2 185.35 L 224.8 186.65 L 229.4 187.3 L 236.9 186.65 L 241.45 187.3 L 246.7 192.85 L 247.65 194.45 L 248.95 198.05 L 248.95 200 L 250.6 201.35 L 251.6 202.65 L 253.2 205.55 L 254.85 212.1 L 256.8 225.15 L 255.5 228.4 L 255.15 235.3 L 257.15 245.4 L 256.8 254.15 L 257.15 255.15 L 262.35 262 L 263 263.6 L 263 265.55 L 261.7 267.55 L 263 273.75 L 268.25 291.7 L 277 313.9 L 277.65 318.8 L 280.55 327.9 L 287.4 340.35 L 291.65 351.75 L 296.55 360.25 L 307.65 376.25 L 313.85 387 L 315.8 393.2 L 320.4 397.8 L 332.15 413.4 L 346.2 440.8 L 350.1 447 L 355 452.9 L 360.85 457.45 L 368 460.7 L 370.3 456.15 L 370.95 454.2 L 369.95 451.25 L 369.6 450.6 L 368.95 449.95 L 361.2 437.2 L 356.95 431.35 L 351.4 425.8 L 350.75 424.15 L 350.45 422.2 L 349.45 420.25 L 348.45 419.6 L 347.5 419.25 L 347.15 417.95 L 346.5 416.35 L 341.6 411.1 L 337.7 405.55 L 332.15 393.2 L 329.85 386.7 L 323.35 374.95 L 318.75 370.05 L 301.45 341.95 L 297.2 329.55 L 296.55 322.7 L 291.35 316.5 L 288.1 309.65 L 285.8 301.8 L 284.8 293.65 L 281.55 290.7 L 279.6 287.1 L 278.95 285.5 L 277.3 270.45 L 275.35 264.6 L 274.05 262.65 L 273.4 253.8 L 267.25 218.65 L 265.3 200.35 L 265.6 191.2 L 269.55 187.3 L 273.4 186.65 L 281.55 186.3 L 298.2 187.6 L 306.7 186.65 L 311.9 186.65 L 314.5 186.3 L 316.8 185.35 L 317.8 184.7 L 318.45 184.05 L 319.75 181.4 L 318.75 179.15 L 317.45 177.15 L 316.15 175.85 L 312.55 173.6 L 305.7 171.95 L 296.25 171.6 L 289.7 170.65 L 287.75 170"></path><path d="M 225.8 236.6 L 221.55 253.5 L 220.9 260.35 L 221.2 263.6 L 219.25 265.9 L 217.95 268.5 L 216.3 276.35 L 214.05 280.9 L 212.4 282.9 L 211.75 284.85 L 210.75 286.8 L 208.8 289.4 L 205.9 291.05 L 202.6 292.35 L 192.8 294.95 L 191.5 295.6 L 190.2 296.6 L 185 296.6 L 184 296.25 L 182.7 295.6 L 182.05 294.95 L 181.4 293.65 L 179.75 274.7 L 179.1 237.55 L 179.45 219.3 L 177.85 217 L 174.95 214.4 L 173.6 214.05 L 172.3 213.4 L 171 213.4 L 168.4 251.55 L 169.05 256.75 L 168.05 272.45 L 166.75 282.9 L 165.45 287.75 L 163.5 292.35 L 160.25 296.6 L 157.95 296.9 L 155.65 296.9 L 153.4 296.6 L 149.8 294.95 L 146.55 292.35 L 145.2 290.7 L 137.7 279.3 L 135.1 276 L 133.8 275.05 L 132.5 272.1 L 132.15 270.8 L 131.85 267.55 L 132.5 258.4 L 132.15 257.1 L 130.55 254.15 L 129.25 252.85 L 129.55 251.85 L 129.9 251.25 L 131.5 249.65 L 133.15 248.65 L 133.8 248 L 134.1 247.35 L 134.45 246.4 L 134.45 245.75 L 133.8 244.4 L 132.8 243.45 L 131.5 242.8 L 130.2 241.8 L 129.55 240.5 L 129.55 238.85 L 130.2 236.6 L 129.55 236.25 L 128.9 234.95 L 129.25 234.65 L 128.55 233.65 L 127.25 233 L 126.3 232.35 L 125.65 231.7 L 125 233.95 L 121.05 238.85 L 116.8 242.8 L 115.85 244.4 L 115.2 247.7 L 115.5 250.95 L 116.15 253.5 L 118.8 259.05 L 120.75 264.9 L 120.75 268.5 L 120.4 270.15 L 122.35 274.7 L 123 277.65 L 122.7 279.3 L 121.7 280.9 L 122.35 284.85 L 125.3 292.35 L 129.25 298.85 L 134.1 305.05 L 140.35 310.95 L 143.9 312.25 L 160.9 311.6 L 162.85 311.95 L 166.1 313.9 L 166.45 320.4 L 166.1 322.4 L 165.45 324.35 L 163.2 327.9 L 161.2 329.25 L 161.2 331.5 L 159.6 336.75 L 158.3 339 L 156 340.35 L 150.45 345.25 L 135.1 364.8 L 131.2 368.1 L 128.55 371.35 L 123.7 378.85 L 118.15 390.6 L 106.05 422.85 L 102.15 430.7 L 101.5 433 L 100.85 440.15 L 100.85 442.45 L 100.15 444.75 L 98.55 447.35 L 97.55 448 L 97.9 455.85 L 97.25 470.5 L 97.55 478 L 97.9 479.65 L 98.85 480.95 L 99.85 481.6 L 100.85 481.95 L 102.15 481.95 L 103.45 481.6 Q 103.95 481.3 104.4 480.95 L 105.05 480 L 108.35 470.2 L 111.95 444.4 L 112.9 439.5 L 114.85 435.9 L 115.85 432.3 L 117.45 420.25 L 119.1 412.4 L 122.05 405.25 L 122.7 401.4 L 124 397.15 L 125 395.15 L 126.3 393.2 L 128.25 388.65 L 133.8 380.15 L 136.1 375.6 L 153.4 358.3 L 157.3 355.65 L 161.85 353.7 L 167.1 352.4 L 168.4 353.4 L 171 356 L 172 357.3 L 171.65 386.05 L 172.95 469.55 L 172.3 473.45 L 171 477.7 L 170.35 481.6 L 170.35 483.55 L 171.65 487.5 L 172.3 491.4 L 172 505.1 L 172.3 506.75 L 173.6 509.7 L 174.95 510.65 L 178.5 512 L 179.45 508.4 L 180.4 501.55 L 182.35 498.25 L 183.35 496 L 184 493.7 L 184.35 483.25 L 185 480.95 L 186.3 479 L 186.95 475.75 L 186.6 474.1 L 186.6 472.8 L 181.7 462.35 L 181.4 459.1 L 181.4 425.8 L 181.7 423.2 L 181.7 420.25 L 181.4 417.65 L 180.1 412.4 L 179.75 407.2 L 180.4 404.55 L 181.05 403.35 L 181.05 402.05 L 180.4 399.4 L 179.75 398.1 L 179.75 396.8 L 180.1 395.5 L 181.4 394.2 L 182.35 373.95 L 181.4 365.8 L 179.45 362.2 L 187.25 351.45 L 189.9 351.1 L 192.15 351.1 L 194.1 351.45 L 198.35 352.75 L 203.6 356.35 L 215.35 369.05 L 215.35 371.35 L 216 372.95 L 217 374.3 L 220.9 378.5 L 221.85 380.15 L 222.2 382.45 L 223.85 384.4 L 226.1 388.95 L 227.1 391.6 L 230.35 407.2 L 234.3 419.9 L 235.6 422.2 L 238.5 446.7 L 240.15 456.15 L 241.45 460.7 L 240.5 464.95 L 240.5 469.2 L 241.45 473.15 L 244.7 480.3 L 250.95 490.75 L 251.9 490.75 L 253.2 491.1 L 254.5 491.1 L 255.15 490.75 L 255.8 490.1 L 256.15 489.45 L 256.15 487.5 L 255.8 486.85 L 254.2 484.55 L 253.2 482.25 L 252.55 477.05 L 253.55 472.15 L 255.8 467.6 L 253.55 459.4 L 251.25 442.75 L 248.3 434.6 L 247.35 422.85 L 244.4 411.45 L 236.55 389.3 L 235.9 385.05 L 232.3 376.9 L 229.7 372.95 L 220.55 362.85 L 217.3 360.25 L 217.3 359.6 L 217.65 358.95 L 216 355.35 L 215.35 353.4 L 214.05 351.75 L 211.1 349.15 L 205.55 345.9 L 186.3 339 L 185 337.7 L 182.7 334.15 L 182.05 331.2 L 182.05 324.65 L 183.35 314.85 L 185.3 311.95 L 186.6 310.95 L 187.9 310.3 L 190.55 309.3 L 193.45 308.65 L 206.85 309 L 208.15 308.65 L 210.45 307.35 L 214.35 303.75 L 217.65 299.2 L 219.6 297.25 L 222.2 295.6 L 224.8 276 L 227.1 272.75 L 228.75 269.15 L 230.05 264.9 L 233.6 243.45 L 232.3 241.15 L 230.35 238.85 L 229.7 237.9 L 228.4 237.25 L 227.4 236.9 L 225.8 236.6"></path></g><g transform="scale(0.1714,0.1714) translate(94.5,701)"><path d="M 180.35 0.45 L 174.65 3.95 L 172.5 7.9 L 172.5 10.05 L 173.35 18.35 L 172.5 19.7 L 172.05 21 L 172.5 23.6 L 172.5 25.8 L 171.2 26.25 L 169.45 25.8 L 168.55 24.05 L 168.1 21.85 L 168.55 16.2 L 166.8 17.05 L 165.95 17.95 L 165.05 19.7 L 165.05 21.85 L 167.25 25.8 L 168.1 28.4 L 168.55 30.6 L 168.55 33.2 L 169.45 33.2 L 170.75 34.1 L 172.05 34.5 L 174.25 34.5 L 176.4 33.65 L 181.2 27.95 L 182.55 25.8 L 184.3 24.9 L 180.8 24.9 L 181.2 23.6 L 182.1 22.3 L 184.3 21 L 185.15 20.1 L 186.05 18.8 L 186.45 17.95 L 186.9 16.2 L 186.05 13.55 L 186.05 10.05 L 185.15 3.95 L 184.3 1.35 L 183.85 0.45 L 182.95 0 L 181.65 0 L 180.35 0.45"></path><path d="M 214.4 50.6 L 207.85 51.9 L 205.25 51.45 L 199.55 53.2 L 186.9 61.5 L 186.05 61.1 L 184.7 61.1 L 182.1 61.5 L 180.35 61.5 L 179.5 61.1 L 179.5 62.4 L 179.05 63.25 L 178.15 64.15 L 176.85 64.55 L 174.25 65 L 173.8 65.45 L 173.35 66.3 L 174.65 68.95 L 179.5 68.95 L 184.3 69.8 L 191.7 70.25 L 198.7 68.95 L 202.2 68.95 L 217.45 72.85 L 218.8 77.25 L 218.8 79 L 220.1 80.3 L 220.55 82.05 L 220.95 85.1 L 221.85 88.15 L 223.15 89.05 L 224.9 89.9 L 224 91.65 L 224 95.6 L 224.9 99.4 L 224.9 103.8 L 224 105.95 L 224.9 107.3 L 225.75 109.05 L 225.75 117.75 L 226.2 119.5 L 224.45 122.15 L 223.6 125.6 L 222.7 132.15 L 222.7 139.15 L 222.25 142.2 L 221.4 145.25 L 222.25 148.35 L 222.25 150.95 L 221.4 153.15 L 220.1 155.3 L 215.3 161.35 L 214 163.55 L 214.4 164.4 L 215.7 165.7 L 215.7 166.15 L 216.15 167 L 215.3 168.75 L 214.4 167 L 213.55 166.15 L 211.35 164.85 L 210.9 166.15 L 210.05 167 L 207.85 167.9 L 205.7 169.2 L 203.95 170.95 L 202.6 172.7 L 200.85 174 L 198.7 174.45 L 196.5 174.45 L 192.15 173.55 L 188.2 172.25 L 184.7 168.75 L 182.95 167.9 L 180.8 167.45 L 179.5 156.55 L 175.55 149.2 L 173.35 147.9 L 173.35 146.15 L 176 141.8 L 177.3 137 L 177.75 132.6 L 177.3 128.25 L 176 124.3 L 178.6 118.65 L 178.6 117.75 L 178.15 116.9 L 179.5 116.45 L 179.5 111.2 L 180.8 110.75 L 179.9 109.9 L 178.6 106.4 L 177.75 105.55 L 176 104.65 L 172.9 104.65 L 168.55 103.35 L 166.8 103.35 L 165.05 103.8 L 164.2 104.2 L 163.75 105.1 L 163.75 105.95 L 163.3 107.3 L 162.9 106.85 L 162.45 105.95 L 162.45 104.65 L 159.8 104.65 L 157.65 105.95 L 157.2 106.85 L 157.2 109.05 L 161.15 116.45 L 161.15 118.2 L 162.9 120.8 L 164.2 125.6 L 165.05 126.95 L 166.35 127.8 L 168.55 127.8 L 165.95 130.45 L 167.25 133.05 L 168.1 138.7 L 168.1 149.2 L 168.55 151.4 L 167.25 152.25 L 166.35 153.15 L 165.95 154 L 165.95 154.9 L 166.8 156.55 L 168.55 157.4 L 166.8 160.9 L 162.9 177.05 L 161.15 180.55 L 159.8 182.3 L 158.5 183.6 L 156.75 184.95 L 155 185.8 L 153.7 188 L 151.95 189.75 L 149.35 191.05 L 138.85 193.25 L 136.25 194.55 L 136.25 198.05 L 134.5 198.9 L 132.75 200.65 L 131.45 198.05 L 128.8 198.05 L 126.2 197.15 L 121.85 194.55 L 115.3 187.1 L 113.95 175.75 L 113.95 173.15 L 114.85 170.5 L 116.15 168.35 L 117.9 166.15 L 116.6 163.55 L 116.6 161.35 L 117.05 158.75 L 117.9 156.1 L 116.6 155.3 L 115.7 154.45 L 115.7 153.55 L 116.15 152.7 L 117.05 150.1 L 117.9 149.2 L 117.9 147.9 L 115.3 147.9 L 114.4 146.15 L 114.4 145.25 L 116.15 144.4 L 117.05 143.55 L 117.45 141.8 L 117.45 140.45 L 117.9 138.7 L 118.75 137.4 L 120.1 136.1 L 122.7 135.25 L 121.4 132.6 L 120.5 131.75 L 119.2 131.75 L 118.75 130 L 118.75 129.55 L 119.2 129.1 L 120.5 130.45 L 122.7 130.45 L 123.6 130 L 124 129.1 L 119.2 121.7 L 120.5 121.25 L 120.95 119.95 L 120.95 116.9 L 120.5 113.4 L 120.5 112.1 L 121.4 110.75 L 121.85 107.7 L 121.85 106.4 L 121.4 105.1 L 120.95 104.2 L 120.1 103.35 L 117.9 102.05 L 115.7 104.2 L 115.3 105.1 L 113.95 105.1 L 113.1 104.65 L 110.9 104.65 L 110.05 104.2 L 109.6 103.8 L 108.75 102.05 L 107.85 100.75 L 111.35 101.15 L 112.65 100.75 L 112.65 100.3 L 113.1 99.85 L 115.3 99.85 L 114.85 99 L 113.95 98.55 L 112.2 98.1 L 110.5 97.25 L 109.15 94.7 L 108.75 93.4 L 107.85 92.1 L 105.25 91.2 L 100.45 91.2 L 100.85 92.5 L 100.45 93.85 L 99.1 95.95 L 98.25 98.55 L 98.25 99.4 L 99.55 100.75 L 100 100.75 L 100.45 100.3 Q 100.85 100.1 101.3 99.85 L 101.75 99.85 L 103.05 100.75 L 103.9 101.6 L 103.05 103.35 L 100.85 105.1 L 99.55 107.3 L 103.9 107.3 L 105.65 106.4 L 106.1 105.95 L 107 104.65 L 107.85 107.3 L 107.85 108.15 L 107.4 109.45 L 104.35 113.4 L 109.6 125.2 L 110.05 128.25 L 110.05 131.3 L 109.6 134.8 L 107.85 137.85 L 109.15 137.85 L 110.05 139.15 L 110.05 142.65 L 109.15 143.95 L 110.05 146.15 L 110.5 147.9 L 108.3 156.55 L 107.85 158.75 L 107.85 161.35 L 109.6 160.9 L 110.5 160.45 L 110.5 161.35 L 109.15 163.1 L 108.75 164.85 L 108.75 166.15 L 113.1 172.25 L 113.1 175.75 L 111.8 181 L 110.9 182.3 L 109.6 183.6 L 107.85 184.5 L 108.3 186.25 L 107.85 188 L 106.55 191.05 L 104.8 193.65 L 102.2 196.3 L 90.8 203.25 L 90.4 203.7 L 90.4 204.15 L 92.15 205.45 L 90.8 208.05 L 89.5 206.75 L 89.5 205.45 L 87.35 205.45 L 83.4 208.95 L 82.1 209.8 L 80.8 210.25 L 79.05 209.8 L 75.95 210.7 L 74.65 211.55 L 72.9 212.45 L 71.6 213.3 L 69.4 213.3 L 67.25 212.9 L 68.1 216.3 L 72.05 222.85 L 72.5 224.6 L 72.5 226.35 L 70.3 225 L 67.7 222.4 L 65.05 217.15 L 65.05 215.4 L 61.15 214.95 L 43.65 219.35 L 36.65 220.2 L 32.3 221.5 L 21.8 225.9 L 19.2 226.35 L 18.35 238.55 L 17 238.55 L 16.6 237.25 L 16.6 229.4 L 15.7 226.35 L 13.95 227.2 L 11.8 227.65 L 7.4 228.05 L 5.25 228.05 L 3.05 228.5 L 1.75 229.4 L 0.85 231.15 L 0 232.45 L 0 233.75 L 0.4 235.05 L 3.05 238.55 L 3.5 239.85 L 3.5 241.2 L 8.3 241.2 L 8.3 243.8 L 13.1 241.2 L 15.7 246 L 13.95 248.6 L 13.1 251.2 L 16.6 251.65 L 22.7 251.65 L 25.3 252.1 L 28.8 252.1 L 34.9 250.35 L 48.9 242.5 L 51.1 243.35 L 55.9 243.35 L 58.5 242.5 L 63.3 240.3 L 68.55 238.55 L 70.3 237.7 L 70.75 236.8 L 71.6 234.2 L 72.05 231.15 L 72.5 229.4 L 73.35 227.65 L 74.25 228.95 L 74.65 230.25 L 74.65 232.45 L 75.55 232.45 L 76.4 232 L 77.7 230.7 L 79.9 227.65 L 79.9 226.75 L 79.45 225.9 L 78.15 224.15 L 77.7 223.25 L 77.7 222.4 L 78.15 221.95 L 79.9 221.5 L 80.35 223.7 L 82.1 226.35 L 84.7 228.05 L 86 228.5 L 89.5 228.95 L 93 228.95 L 96.05 229.4 L 99.1 230.25 L 100.45 231.15 L 101.75 232.45 L 103.9 236.35 L 105.25 240.75 L 107 249.9 L 104.35 252.95 L 102.2 258.65 L 101.75 262.15 L 102.6 263.45 L 102.6 265.2 L 103.05 267.8 L 103.05 269.15 L 103.9 270.45 L 104.8 271.3 L 107 271.75 L 106.1 273.5 L 105.65 275.15 L 105.65 278.65 L 109.6 291.75 L 110.05 294.8 L 109.15 297.85 L 109.6 299.15 L 110.5 300.5 L 111.8 301.35 L 113.1 301.35 L 113.1 300.05 L 112.65 298.3 L 112.65 297.4 L 113.1 296.55 L 113.95 295.7 L 115.3 294.8 L 116.6 294.8 L 117.9 295.25 L 117.9 291.75 L 119.2 291.75 L 120.1 289.15 L 120.1 286.95 L 119.2 283 L 117.9 285.65 L 115.3 283 L 117.05 282.15 L 118.35 280.85 L 118.35 276.9 L 116.6 269.55 L 117.9 267.8 L 118.75 266.05 L 118.75 258.2 L 119.65 256.45 L 121.4 254.7 L 120.1 247.75 L 119.2 244.65 L 118.35 243.35 L 116.6 242.5 L 112.65 237.25 L 110.9 232.9 L 110.9 230.7 L 111.35 228.5 L 113.1 222.85 L 114.4 220.2 L 121.4 213.75 L 128.8 209.4 L 131.45 209.4 L 131.45 208.05 L 132.3 206.35 L 133.2 205.45 L 136.7 204.6 L 141.5 204.6 L 143.25 204.15 L 145 203.25 L 149.8 203.7 L 155.9 205 L 157.65 206.35 L 161.15 210.25 L 163.75 220.65 L 162.45 226.35 L 164.65 227.65 L 163.75 228.5 L 162.45 228.5 L 162.45 234.2 L 163.3 239.85 L 162.45 239.85 L 161.55 240.3 L 161.55 241.6 L 164.2 249.9 L 167.25 254.7 L 170.3 254.7 L 170.3 255.6 L 170.75 257.35 L 173.35 257.35 L 174.25 255.6 L 175.1 252.95 L 173.8 249.05 L 173.35 246 L 173.35 245.1 L 174.65 243.8 L 176 243.8 L 175.1 242.9 L 174.65 242.05 L 174.65 241.2 L 178.15 238.55 L 174.25 220.2 L 174.25 217.15 L 176.4 206.35 L 176 204.15 L 175.55 203.25 L 175.55 202.85 L 176 201.1 L 176.85 199.8 L 176.85 198.05 L 179.5 191.9 L 180.8 190.15 L 183.85 187.1 L 199.55 179.25 L 203.05 177.05 L 206.55 176.2 L 209.6 176.65 L 212.25 177.5 L 217.05 181 L 224 188.4 L 222.25 191.05 L 216.15 198.05 L 214 202.85 L 214 205.45 L 214.4 206.75 L 215.3 208.05 L 213.55 211.55 L 212.65 211.55 L 212.25 216.3 L 212.65 218.05 L 213.1 218.45 L 214 218.9 L 212.25 222.4 L 211.35 223.7 L 209.15 223.7 L 210.05 225.45 L 210.5 226.75 L 209.15 231.55 L 209.15 234.2 L 210.5 235.05 L 208.3 236.35 L 207.4 238.1 L 207 239.85 L 207 242.05 L 207.85 246 L 207.85 249.9 L 206.55 251.65 L 206.1 253.4 L 207 257.35 L 207.85 259.5 L 208.3 261.25 L 207.85 263.45 L 206.55 265.65 L 207.4 269.55 L 209.15 273.95 L 210.05 275.6 L 210.05 279.95 L 209.15 281.7 L 210.5 282.15 L 214 280.85 Q 215.7 279.5 217.45 278.2 L 220.1 281.7 L 216.6 283 L 216.6 285.2 L 217.05 286.5 L 220.95 290.45 L 222.7 291.75 L 223.6 293.05 L 224 295.25 L 224.9 293.5 L 224.9 290.45 L 224 290.45 L 224.9 284.3 L 225.35 282.6 L 224.9 280.85 L 224 279.1 L 223.15 277.75 L 222.25 276.05 L 221.85 274.7 L 222.25 273.5 L 224 271.75 L 226.2 273.05 L 226.2 271.3 L 226.65 269.15 L 227.5 266.95 L 228.8 265.65 L 227.5 264.75 L 227.1 263.45 L 226.65 260.4 L 226.65 259.1 L 226.2 258.2 L 225.35 257.35 L 224 257.35 L 226.2 256 L 225.35 253.4 L 224.9 251.2 L 224 237.7 L 225.35 235.5 L 225.75 233.75 L 225.75 232 L 224.9 230.7 L 223.6 228.05 L 224 227.2 L 224.9 226.35 L 225.75 222.4 L 225.75 215.4 L 224.9 212.9 L 225.35 211.55 L 226.65 210.7 L 227.5 210.7 L 228.8 210.25 L 229.25 208.95 L 229.25 207.2 L 228.8 206.35 L 227.95 205 L 225.75 203.7 L 224 201.95 L 226.2 200.65 L 225.35 197.6 L 224.9 194.55 L 224.9 191.5 L 225.75 186.25 L 228.8 177.05 L 240.2 172.25 L 244.55 172.25 L 247.6 170.95 L 253.7 170.1 L 256.75 170.5 L 262.9 170.5 L 266.4 170.1 L 269.45 168.75 L 271.2 167.45 L 271.6 166.15 L 271.6 164.85 L 270.75 161.35 L 270.75 160.05 L 271.6 158.75 L 272.95 157.4 L 272.95 155.3 L 272.5 153.55 L 272.05 152.7 L 270.75 150.95 L 268.15 148.35 L 266.8 147.45 L 265.5 147 L 262.9 147.9 L 262 148.75 L 259.4 147.9 L 247.6 146.6 L 242.35 144.85 L 239.75 142.65 L 238.45 141.8 L 236.25 139.6 L 235.8 138.3 L 234.95 132.15 L 234.95 129.55 L 234.5 126.5 L 233.2 123.9 L 231 121.7 L 232.75 121.25 L 233.2 120.4 L 233.2 118.2 L 232.75 116.9 L 232.75 115.6 L 233.65 114.25 L 234.95 113.4 L 234.95 110.35 L 236.7 105.95 L 236.7 104.2 L 236.25 103.35 L 234.95 102.05 L 236.25 101.6 L 237.1 100.3 L 238 97.25 L 238 93.85 L 238.85 92.1 L 239.75 91.2 L 238.85 87.7 L 241.9 74.6 L 241.9 71.55 L 241.05 68.95 L 240.2 67.65 L 236.25 65 L 230.55 59.35 L 228.4 57.6 L 224 54.95 L 221.4 54.1 L 220.95 56.25 L 219.65 58.9 L 218.8 59.75 L 217.9 60.2 L 216.6 60.2 L 216.6 55.4 L 216.15 54.55 L 216.6 53.65 L 217.05 53.2 L 217.9 52.8 L 219.2 52.35 L 220.1 51.45 L 220.1 50.6 L 214.4 50.6"></path><path d="M 428.9 56.25 L 428.5 55.4 L 430.65 54.1 L 424.1 51.45 L 416.7 50.6 L 401.3 50.6 L 396.1 53.2 L 386.9 54.95 L 384.3 55.85 L 381.65 57.15 L 379.05 59.35 L 377.75 59.75 L 376 59.75 L 372.05 59.35 L 368.55 59.35 L 366.8 60.2 L 365.5 61.5 L 362.45 61.5 L 355.45 64.55 L 352 65.45 L 346.3 67.65 L 340.6 68.95 L 323.15 70.25 L 311.8 72.45 L 306.55 75.05 L 306.55 75.9 L 307.45 76.8 L 308.75 78.55 L 309.6 80.3 L 308.75 80.75 L 307.45 81.15 L 309.6 82.05 L 311.8 82.05 L 313.55 82.9 L 314.4 83.8 L 314.85 85.1 L 316.15 82.5 L 317.5 82.5 L 317.5 85.55 L 317.05 85.95 L 316.15 86.4 L 320.55 88.15 L 329.25 88.6 L 334.05 88.15 L 359.4 79.85 L 374.25 77.25 L 381.65 75.05 L 384.75 73.3 L 392.15 70.7 L 400 68.95 L 407 69.8 L 411.35 72.85 L 412.7 74.6 L 413.1 76.35 L 414 78.55 L 415.4 84.2 L 416.25 86.4 L 413.55 87.7 L 411.8 89.45 L 409.6 93.85 L 410.95 98.55 L 411.35 109.45 L 410.5 114.7 L 406.15 124.75 L 403.05 129.1 L 398.7 133.05 L 397.4 133.5 L 395.65 133.5 L 392.6 133.05 L 389.55 132.15 L 387.8 132.15 L 385.15 133.9 L 384.3 134.35 L 378.2 135.25 L 376.85 135.65 L 375.1 136.55 L 361.15 138.3 L 350.65 138.7 L 348.05 137.85 L 344.1 140.45 L 334.95 143.55 L 331 143.95 L 323.6 143.95 L 322.3 144.4 L 320.95 145.25 L 319.2 147.9 L 319.2 149.65 L 320.1 150.5 L 321.85 151.85 L 323.6 152.7 L 323.15 154.45 L 323.15 156.1 L 323.6 157.4 L 324.9 158.3 L 327.5 158.3 L 328.4 157.4 L 329.25 157.85 L 329.7 158.75 L 329.7 160.05 L 337.55 158.75 L 338.45 159.15 L 339.75 160.05 L 341.05 159.6 L 342.35 159.6 L 345 160.45 L 348.05 160.45 L 350.65 158.75 L 358.95 159.15 L 366.8 158.75 L 389.1 153.55 L 414.95 145.25 L 432.4 142.65 L 435.9 140.9 L 437.2 139.6 L 438.95 138.3 L 440.7 134.35 L 438.55 131.3 L 429.8 123 L 428.9 121.25 L 428.5 119.05 L 428.5 117.35 L 430.65 107.3 L 432 105.1 L 433.75 103.35 L 436.8 99 L 438.55 95.15 L 438.1 92.95 L 437.65 92.1 L 436.8 91.2 L 438.55 89.45 L 439.4 88.15 L 440.7 85.1 L 441.6 81.15 L 440.7 69.35 L 439.4 65.45 L 435.05 58.45 L 432 55.4 L 430.25 56.25 L 428.9 56.25"></path><path d="M 155.9 72.85 L 152.4 71.55 L 150.65 71.55 L 149.35 71.1 L 148.05 71.55 L 147.6 72.85 L 138.4 74.2 L 122.25 74.6 L 114.4 77.65 L 115.3 79.4 L 116.6 80.75 L 119.2 82.5 L 121.4 77.65 L 121.85 78.55 L 122.7 79 L 124.9 79.4 L 125.75 79.85 L 126.2 80.75 L 126.2 81.15 L 125.3 82.5 L 127.5 82.05 L 138 82.5 L 140.15 82.05 L 142.35 81.15 L 142.8 79.85 L 143.65 79 L 147.6 79 L 151.95 78.1 L 154.15 77.25 L 155.9 75.9 L 157.2 74.6 L 158.5 72.85 L 155.9 72.85"></path><path d="M 414 185.35 L 410.5 184.5 L 408.75 184.5 L 402.2 186.65 L 392.6 191.9 L 372.95 199.35 L 367.25 199.35 L 362 200.65 L 348.05 207.2 L 338 210.25 L 334.95 210.7 L 332.3 210.25 L 325.35 213.3 L 322.3 214.2 L 318.8 214.2 L 310.95 212 L 307.85 212.9 L 306.55 214.2 L 305.25 212.9 L 304.35 212.45 L 303.5 212.45 L 302.65 212.9 L 300.45 214.6 L 297.8 215.4 L 298.25 215.4 L 298.7 215.85 L 299.15 216.7 L 300 216.7 L 300.9 217.15 L 301.75 218.05 L 302.2 218.9 L 302.2 220.65 L 301.3 221.5 L 303.95 221.5 L 303.95 220.2 L 304.8 218.9 L 309.6 214.6 L 312.65 212.9 L 313.55 214.6 L 313.55 215.4 L 312.65 216.7 L 311.8 217.6 L 310.05 218.9 L 313.55 221.5 L 313.1 222.85 L 312.25 223.7 L 310.5 224.6 L 308.3 224.6 L 306.55 223.7 L 308.3 225.45 L 309.6 226.35 L 317.9 226.35 L 324.9 227.65 L 328.4 227.65 L 331.9 227.2 L 336.7 225 L 338.45 223.7 L 340.6 225.45 L 342.8 225.9 L 346.3 225 L 348.05 223.7 L 350.25 223.25 L 352 223.25 L 354.6 223.7 L 355.05 222.85 L 355.45 221.5 L 356.8 221.1 L 357.65 220.65 L 359.85 220.2 L 368.15 220.2 L 370.75 219.8 L 372.95 218.9 L 371.65 216.7 L 372.95 215.4 L 376 216.3 L 383.85 216.3 L 385.15 216.7 L 386.9 217.6 L 388.2 218.45 L 388.65 219.8 L 389.55 221.1 L 389.55 224.15 L 389.1 227.2 L 386.9 233.75 L 386.5 236.8 L 386.5 239.85 L 376.45 247.75 L 375.1 249.45 L 373.35 253.4 L 370.75 257.35 L 365.5 260.85 L 347.15 267.8 L 343.25 270.85 L 344.1 270.85 L 345 271.3 L 345.85 273.05 L 346.3 274.7 L 345.85 276.9 L 347.15 277.75 L 348.05 279.1 L 348.5 279.95 L 348.5 284.3 L 349.35 287.8 L 348.5 288.7 L 347.6 290 L 347.15 293.05 L 347.15 294.35 L 346.3 295.25 L 345 295.7 L 343.25 295.25 L 341.95 301.8 L 341.5 303.1 L 340.6 304 L 342.35 303.55 L 343.25 303.55 L 343.25 304 L 343.7 303.1 L 346.3 301.8 L 347.6 300.9 L 348.05 300.05 L 348.05 299.15 L 350.25 299.15 L 350.25 298.3 L 350.65 297 L 350.65 295.25 L 356.8 289.55 L 360.25 287.8 L 368.15 286.5 L 376 286.95 L 380.35 287.8 L 382.55 290 L 388.65 292.6 L 391.7 293.5 L 404.8 295.25 L 418 300.05 L 426.3 305.3 L 428.5 307.45 L 431.1 308.35 L 437.2 309.2 L 439.4 310.1 L 441.6 310.1 L 443.35 310.55 L 452.95 314.9 L 453.4 313.6 L 454.25 312.7 L 456.85 312.7 L 457.3 309.2 L 456 302.25 L 454.25 299.15 L 451.65 300.05 L 450.3 300.9 L 448.15 300.9 L 446.4 300.5 L 445.95 299.6 L 445.5 299.15 L 446.85 298.3 L 449 297.85 L 452.95 297.85 L 452.5 296.1 L 452.5 295.7 L 452.95 295.25 L 452.05 293.5 L 450.75 291.75 L 447.7 288.7 L 444.2 286.5 L 440.3 284.75 L 423.25 280.4 L 422.35 281.7 L 421.5 282.15 L 418.9 282.6 L 416.25 282.6 L 408.75 281.25 L 406.55 281.7 L 405.7 282.15 L 404.8 283 L 403.05 281.7 L 401.3 281.25 L 397.85 281.25 L 394.35 282.6 L 391.3 284.3 L 390.4 283 L 388.65 281.7 L 381.65 278.65 L 379.05 276.9 L 380.35 276.05 L 380.8 275.15 L 381.25 273.95 L 381.25 273.05 L 380.8 271.3 L 379.05 267.8 L 378.6 266.5 L 378.6 265.65 L 379.05 264.75 L 379.95 263.9 L 381.65 263.45 L 379.05 260.85 L 379.5 259.5 L 380.35 258.2 L 388.65 252.1 L 389.55 251.65 L 390.4 250.8 L 390.85 248.6 L 390.85 246.4 L 389.95 244.65 L 391.3 244.65 L 392.15 245.1 L 393.05 245.1 L 393.9 244.65 L 394.75 243.35 L 395.2 242.5 L 396.5 242.05 L 399.15 239.45 L 400.45 236.8 L 401.3 234.2 L 402.65 231.55 L 403.95 229.8 L 404.8 228.95 L 405.7 228.5 L 407 228.5 L 408.75 228.95 L 413.1 226.75 L 419.75 219.8 L 422.35 215.4 L 421.95 213.75 L 422.8 210.7 L 423.25 209.8 L 425 207.65 L 429.35 204.15 L 431.55 201.95 L 432.85 199.35 L 433.3 197.6 L 433.3 195.85 L 432.4 193.25 L 431.55 191.5 L 427.6 189.75 L 425.45 189.75 L 423.25 189.3 L 418.45 189.75 L 417.15 187.55 L 414 185.35"></path><path d="M 207.85 292.6 L 215.7 289.15 L 214.4 289.55 L 213.55 289.55 L 210.9 290 L 209.6 290 L 208.75 290.85 L 207.85 291.3 L 207.85 292.6"></path><path d="M 207.4 303.1 L 207.85 304 L 212.65 302.65 L 213.1 300.9 L 214.4 299.6 L 207.85 301.35 L 207.4 302.25 L 207.4 303.1 M 217.9 297.4 L 216.15 298.75 L 214.4 299.6 L 220.1 297.85 L 220.55 296.1 L 220.1 293.95 L 219.2 296.1 L 217.9 297.4"></path><path d="M 198.25 300.5 L 197.4 303.1 L 196.95 306.15 L 196.95 307.9 L 196.5 308.8 L 199.15 308.8 L 200.85 308.35 L 201.75 307.9 L 202.2 306.6 L 200.85 302.65 L 200.85 301.35 L 201.75 300.05 L 199.55 300.05 L 198.25 300.5"></path><path d="M 211.8 311.4 L 212.65 312.7 L 212.65 313.6 L 214 314.9 L 214.4 316.2 L 214.85 317.1 L 214 317.95 L 212.65 318.8 L 210.05 317.95 L 207.85 317.95 L 206.1 317.1 L 203.95 314.9 L 203.95 314.45 L 203.5 314.45 L 201.75 314 L 200.45 314.45 L 200 314.45 L 200.45 314.9 L 206.1 328 L 207.4 330.2 L 209.15 332.35 L 210.9 332.35 L 212.25 332.8 L 213.1 333.65 L 215.3 337.1 L 215.3 335.75 L 219.65 331.05 L 222.25 331.05 L 224 332.35 L 226.2 329.3 L 227.5 325.8 L 228.8 317.5 L 227.5 315.35 L 226.65 313.15 L 226.65 304 L 225.75 301.8 L 224 300.05 L 222.25 301.35 L 215.3 305.3 L 214.4 306.15 L 214 307.45 L 217.45 306.15 L 218.35 305.3 L 218.8 304 L 221.85 303.55 L 223.15 304 L 223.6 304.4 L 224 305.3 L 218.8 307.9 L 216.6 309.65 L 215.3 310.1 L 214 310.1 L 212.65 307.45 L 206.55 311.85 L 205.25 313.6 L 207.85 316.2 L 210.5 311.4 L 210.9 310.95 L 211.35 310.95 L 211.8 311.4 M 222.7 332.35 L 219.65 334.45 L 218.8 335.75 L 217.45 337.1 L 215.3 337.1 L 216.15 337.95 L 217.45 338.4 L 220.55 337.95 L 223.6 337.1 L 224.45 336.2 L 224.9 335.35 L 224.9 334 L 224 332.35 L 222.7 332.35"></path><path d="M 336.7 345.4 L 334.5 345.8 L 332.3 347.1 L 330.15 345.8 L 327.95 345.8 L 326.2 346.25 L 320.55 348.85 L 318.35 349.3 L 316.15 349.3 L 314.4 351.05 L 312.65 351.95 L 307.85 353.65 L 303.05 354.55 L 300.9 355.4 L 299.15 356.75 L 293 359.35 L 281.25 362.85 L 275.55 365.45 L 273.8 367.65 L 271.6 369.4 L 266.8 371.15 L 259.4 372 L 257.2 372.9 L 256.75 372 L 256.75 371.15 L 257.2 370.25 L 248.5 372.9 L 238.85 374.65 L 218.8 376.4 L 218.8 378.15 L 218.35 379.45 L 217.45 380.3 L 216.6 380.75 L 214 379.9 L 212.65 379 L 215.3 376.4 L 207.85 375.95 L 201.3 376.8 L 188.2 380.3 L 185.15 379 L 182.1 378.55 L 176 378.55 L 163.3 382.5 L 163.75 384.7 L 164.65 386.45 L 169.45 389.05 L 170.75 389.5 L 173.35 389.5 L 174.65 388.6 L 175.55 389.9 L 176.4 390.8 L 178.6 391.65 L 182.95 392.55 L 184.3 391.25 L 185.6 390.35 L 187.35 390.35 L 195.65 392.55 L 198.25 394.2 L 200.85 394.65 L 203.5 394.2 L 206.1 393.4 L 215.3 387.75 L 214 386.45 L 214 385.55 L 214.4 384.7 L 214 382.5 L 224 386.45 L 227.5 384.7 L 255.9 378.55 L 258.5 379 L 259.4 377.7 L 260.7 376.4 L 263.3 375.05 L 265.95 374.65 L 278.6 375.05 L 281.65 374.2 L 285.15 375.95 L 288.65 375.95 L 292.15 374.65 L 303.95 368.1 L 306.1 367.65 L 307.85 367.65 L 310.05 368.1 L 312.65 368.95 L 316.15 368.5 L 323.6 366.75 L 326.65 366.75 L 336.25 365.45 L 356.35 361.1 L 362.9 361.1 L 365.95 361.55 L 369 362.4 L 376.85 366.35 L 378.2 367.2 L 379.95 369.85 L 380.8 372.45 L 381.25 375.05 L 380.8 383.35 L 381.65 386.45 L 381.65 389.05 L 379.05 395.95 L 371.65 403.35 L 367.7 406.45 L 362.45 412.1 L 359.85 416.05 L 359.4 418.2 L 355.05 424.75 L 349.35 430.45 L 343.25 434.4 L 339.75 436.1 L 335.8 436.55 L 338.45 437.85 L 334.5 441.8 L 332.3 437.85 L 330.6 438.3 L 328.85 439.2 L 327.1 440.5 L 326.2 443.1 L 328.85 444.4 L 334.95 444.4 L 338 443.55 L 347.6 441.8 L 350.65 441.8 L 352.4 437.85 L 353.7 436.55 L 355.45 435.7 L 360.25 432.2 L 361.6 430.45 L 363.75 430.45 L 365.5 430 L 372.95 426.5 L 376.45 425.65 L 391.3 415.15 L 393.9 412.55 L 397.4 407.3 L 396.95 408.15 L 396.95 409.05 L 397.4 409.5 L 400.45 408.6 L 402.65 407.3 L 404.4 405.55 L 405.7 402.95 L 408.75 398.15 L 410.05 395.5 L 412.25 393.75 L 410.95 392.55 L 412.25 389.9 L 412.7 388.15 L 412.25 386.85 L 411.8 386 L 410.95 385.55 L 408.75 385.1 L 407.85 383.8 L 408.75 382.05 L 409.2 381.6 L 410.95 380.3 L 411.35 379.9 L 410.95 379 L 408.3 376.8 L 406.55 374.65 L 405.25 372 L 402.65 364.15 L 400.9 361.55 L 398.7 359.35 L 392.6 356.75 L 383.85 351.5 L 377.75 348.85 L 374.25 348 L 371.65 346.7 L 365.5 344.95 L 362 344.95 L 352.4 344.05 L 349.35 343.2 L 347.15 344.5 L 345 345.4 L 336.7 345.4"></path><path d="M 196.5 473.15 L 195.65 473.6 L 186.05 474.05 L 176.4 471.85 L 167.25 468.35 L 158.5 463.55 L 157.2 465.75 L 155.45 467.5 L 153.7 468.8 L 151.95 469.65 L 148.05 470.55 L 130.55 470.1 L 126.65 470.95 L 125.3 470.95 L 124.45 471.4 L 120.5 472.7 L 119.2 472.7 L 118.35 471.85 L 117.9 470.1 L 95.2 473.6 L 84.25 474.05 L 73.35 473.6 L 72.05 474.9 L 70.75 475.8 L 69.4 476.2 L 68.1 476.2 L 62.85 475.35 L 60.7 474.05 L 58.05 473.6 L 55.45 473.6 L 54.15 474.05 L 52.4 474.9 L 44.1 474.05 L 27.5 470.55 L 19.2 470.1 L 17.45 470.55 L 15.7 471.4 L 13.1 474.9 L 12.65 477.95 L 12.65 481.45 L 13.55 484.95 L 14.4 486.25 L 15.7 487.15 L 13.95 489.3 L 13.95 490.65 L 14.85 491.95 L 18.35 493.7 L 20.1 495 L 21.4 496.3 L 21.8 497.2 L 21.8 498.05 L 23.15 500.25 L 24.9 502 L 28.8 504.15 L 33.6 505.9 L 43.2 506.35 L 53.25 505.45 L 57.65 504.6 L 58.95 503.3 L 63.75 502 L 70.3 502 L 73.8 502.4 L 77.3 502.4 L 80.35 502 L 82.1 501.55 L 83.4 500.65 L 82.1 500.65 L 80.8 500.25 L 76.85 497.2 L 75.1 496.3 L 73.35 495.85 L 74.65 494.55 L 79.05 496.3 L 83.4 496.3 L 89.1 497.2 L 90.8 498.05 L 101.3 493.7 L 104.35 491.95 L 106.55 493.7 L 108.75 494.55 L 111.35 495 L 114.4 495 L 117.05 494.55 L 124 491.95 L 125.75 492.35 L 127.5 492.35 L 131 491.95 L 139.75 487.55 L 145.4 486.25 L 148.45 487.15 L 151.95 485.4 L 155.45 485.4 L 158.95 484.5 L 160.7 483.65 L 162.45 482.35 L 172.05 483.65 L 181.2 482.75 L 189.5 481 L 197.8 481 L 199.55 480.6 L 200.45 479.7 L 200.85 478.85 L 201.75 478.4 L 226.2 476.2 L 228.8 477.95 L 231.9 478.85 L 234.95 479.25 L 251.1 476.2 L 251.95 474.9 L 256.75 472.7 L 260.25 472.3 L 264.2 472.3 L 279.05 476.2 L 280.8 475.35 L 282.55 475.35 L 285.15 475.8 L 290.4 477.5 L 293 478.85 L 295.65 479.25 L 296.95 479.25 L 300 478.4 L 301.3 477.5 L 304.35 478.4 L 306.1 478.4 L 307.45 477.95 L 310.95 470.95 L 312.65 470.1 L 310.05 469.25 L 296.5 458.75 L 296.95 455.25 L 298.25 452.3 L 299.15 449.2 L 304.35 441.35 L 308.75 436.55 L 307.85 433.05 L 307.85 432.65 L 308.3 431.75 L 308.75 431.3 L 310.05 430.45 L 311.35 422.6 L 312.65 419.55 L 313.55 416.05 L 315.75 415.6 L 317.05 414.7 L 317.5 413.85 L 317.9 412.55 L 317.9 409.5 L 317.5 407.3 L 318.8 406 L 319.2 404.7 L 318.8 403.8 L 317.9 402.95 L 316.15 400.75 L 315.3 399.9 L 314.85 398.55 L 313.55 399 L 311.8 399 L 309.2 398.15 L 304.35 395.5 L 299.55 392.1 L 296.95 391.25 L 293.9 391.25 L 292.15 392.1 L 290.85 393 L 288.65 395.05 L 285.6 401.2 L 287.35 406 L 289.1 419.1 L 290.4 420.85 L 289.1 422.15 L 288.2 425.65 L 288.65 427.4 L 289.1 430.45 L 290.4 433.05 L 289.95 437.85 L 290.4 442.25 L 290.4 451.4 L 289.1 459.6 L 287.35 463.55 L 286.05 465.75 L 282.1 469.25 L 279.9 470.55 L 277.3 471.4 L 260.7 469.65 L 257.65 469.65 L 255.9 468.8 L 252.85 469.25 L 250.2 469.25 L 247.15 468.8 L 244.1 467.9 L 238.85 465.75 L 233.65 464.85 L 227.95 468.35 L 224.9 469.25 L 221.85 470.55 L 216.15 471.4 L 213.1 471.4 L 210.5 470.95 L 208.75 472.3 L 204.8 473.15 L 196.5 473.15"></path><path d="M 141.5 395.05 L 140.15 394.2 L 138.85 394.2 L 137.1 395.05 L 136.25 396.8 L 135.8 397.25 L 134.95 397.25 L 141.5 398.55 L 140.6 399.45 L 138.85 399.45 L 134.95 398.55 L 134.5 402.5 L 134.95 414.7 L 137.1 414.7 L 138 415.15 L 138.85 416.9 L 138 418.2 L 137.1 419.1 L 136.25 421.3 L 136.7 423.9 L 137.55 426.1 L 142.35 435.7 L 143.25 439.2 L 144.55 442.25 L 148.9 447.05 L 154.15 450.95 L 159.8 453.95 L 159.8 452.7 L 162 446.6 L 161.15 444 L 162.45 444 L 161.15 439.6 L 157.65 420.85 L 154.15 411.65 L 151.1 407.3 L 149.35 406.85 L 148.45 407.3 L 147.15 407.75 L 146.7 409.05 L 145.4 411.25 L 143.65 413.4 L 141.9 413.4 L 141.5 413 L 141.5 412.1 L 141.9 410.8 L 144.55 407.3 L 146.3 405.55 L 146.3 403.35 L 144.55 401.6 L 143.25 399.45 L 141.5 395.05"></path><path d="M 226.2 408.6 L 224.45 413.4 L 223.6 419.55 L 223.6 422.6 L 224.9 428.25 L 226.2 430.45 L 230.15 433.95 L 232.3 434.4 L 234.95 434.4 L 233.65 429.55 L 234.5 428.7 L 234.95 428.7 L 236.25 429.55 L 237.1 430.45 L 238 430.9 L 238.45 430.45 L 240.2 429.55 L 241.05 427.85 L 241.9 424.35 L 241.9 417.8 L 242.35 416.05 L 238.85 414.3 L 236.25 412.55 L 232.3 407.3 L 228.8 406.85 L 227.1 407.3 L 226.65 407.75 L 226.2 408.6"></path><path d="M 448.15 501.1 L 452.5 502.4 L 456.85 504.6 L 457.75 502 L 466.9 506.35 L 468.65 506.8 L 470.85 506.8 L 472.6 505.45 L 475.65 507.2 L 478.25 508.1 L 483.95 509.4 L 485.25 510.7 L 488.75 512 L 491.8 512 L 494.85 511.6 L 495.3 508.95 L 495.3 505.9 L 495.75 503.3 L 495.75 502.4 L 496.2 502 L 495.3 501.55 L 494.85 502 L 490.95 499.35 L 490.95 498.9 L 491.35 498.05 L 494 498.9 L 494.85 498.9 L 494.85 498.05 L 470 479.7 L 461.7 474.9 L 419.75 470.1 Q 418.9 470.55 418 470.95 L 416.7 471.4 L 414 471.4 L 409.6 470.1 L 407.45 470.1 L 400.9 471.4 L 388.2 471.85 L 358.1 468.8 L 357.65 469.65 L 356.8 470.55 L 354.6 470.55 L 350.65 470.1 L 348.9 468.35 L 347.15 467.9 L 345 468.35 L 343.25 470.1 L 341.05 468.35 L 338.45 467.5 L 335.8 467.5 L 333.65 467.9 L 328.4 469.65 L 325.75 470.1 L 323.6 470.1 L 322.3 471.4 L 320.55 471.85 L 318.8 471.85 L 316.6 471.4 L 313.55 472.3 L 312.65 472.7 L 312.65 476.2 L 313.55 477.95 L 314.85 479.25 L 316.6 480.15 L 323.15 480.15 L 326.2 479.7 L 326.2 481 L 340.6 481.9 L 355.45 484.5 L 358.1 485.8 L 360.7 486.7 L 370.3 488 L 385.15 487.15 L 392.6 488.45 L 395.2 489.75 L 421.05 493.25 L 429.8 498.05 L 448.15 501.1"></path></g><g transform="scale(0.1714,0.1714) translate(102,1339)"><path d="M 296.65 9.35 L 291.95 5.95 L 283.9 2.95 L 272.5 0.4 L 266.55 0 L 236.8 2.1 L 230.85 1.7 L 227.95 3.4 L 221.15 5.1 L 209.65 6.35 L 202 9.35 L 207.1 14.85 L 210.95 17.4 L 213.05 18.25 L 215.2 18.7 L 217.3 18.7 L 220.7 23.8 L 228.3 31.45 L 232.55 34.4 L 252.1 45.9 L 272.95 47.6 L 279.3 47.15 L 288.55 44.6 L 297.05 38.65 L 302.2 32.3 L 303.05 31.45 L 303.9 30.15 L 304.3 27.6 L 303.9 25.05 L 303.05 22.5 L 299.2 14 L 298.35 11.05 L 296.65 9.35"></path><path d="M 469.85 118.85 L 441.45 107.9 L 421.45 102.8 L 410.85 101.1 L 388.8 99.8 L 346.3 114.25 L 340.75 117.15 L 319.6 120.55 L 309.4 123.5 L 279.75 134.55 L 259.75 140.1 L 249.1 142.25 L 234.65 148.6 L 230 149.9 L 225 150.75 L 219.45 149.9 L 206.7 154.55 L 175.25 161.35 L 92.5 186.8 L 73.4 190.6 L 53.9 192.3 L 44.15 192.3 L 41.15 193.15 L 38.2 193.15 L 31.8 192.3 L 16.5 188.05 L 11.4 188.05 L 9.3 188.9 L 5.9 192.75 L 4.7 195.7 L 3.85 199.95 L 2.15 202.1 L 0.85 204.2 L 0 208.45 L 0 210.6 L 0.45 212.7 L 2.15 216.95 L 4.25 220.8 L 13.1 231 L 13.1 233.1 L 13.95 236.85 L 14.8 238.15 L 16.1 239.4 L 20.35 241.95 L 23.3 243.25 L 27.15 245.8 L 28 247.05 L 28.85 250.05 L 33.1 251.75 L 42 252.15 L 46.7 251.3 L 50.95 249.6 L 54.75 247.5 L 70.4 234.4 L 101 213.55 L 123.05 202.1 L 146 192.3 L 162.55 187.2 L 167.25 184.65 L 186.3 177 L 224.55 164.35 L 244.45 161.35 L 244.45 160.1 L 245.3 158.8 L 246.55 157.95 L 250.8 156.7 L 253.8 157.55 L 261.9 153.7 L 270.4 150.75 L 286.85 147.35 L 295.35 146.5 L 321.3 146.05 L 348.45 144.35 L 375.2 143.95 L 463.9 155.85 L 469.4 153.3 L 474.95 149.05 L 480.45 141.4 L 481.3 138.4 L 480.45 135.4 L 471.1 121.8 L 469.85 118.85"></path><path d="M 368 248.35 L 364.15 245.8 L 360.35 244.5 L 342.5 240.25 L 340.75 240.7 L 336.2 239.4 L 332.8 237.7 L 326.85 233.95 L 323.45 232.7 L 319.6 231.85 L 315.8 232.7 L 311.95 232.7 L 309 232.25 L 306.45 231 L 303.05 227.15 L 297.9 206.75 L 297.05 204.2 L 294.5 199.55 L 292.4 197.85 L 290.7 193.15 L 285.15 185.5 L 274.2 176.55 L 260.6 167.75 L 257.2 166.05 L 254.2 165.2 L 253.35 165.2 L 251.65 166.05 L 251.25 166.9 L 250.8 169 L 250.8 174.55 L 251.65 181.7 L 251.65 189.35 L 251.25 192.75 L 250.4 195.7 L 248.7 198.25 L 246.15 199.95 L 245.7 204.65 L 244 213.55 L 239.35 226.3 L 219.45 269.15 L 216.05 272.55 L 208.4 284.9 L 206.25 289.55 L 200.3 298 L 196.05 301.8 L 182.9 321.35 L 154.5 359.55 L 107.8 413.55 L 75.1 446.6 L 69.55 452.55 L 62.75 457.65 L 56.9 463.2 L 54.75 467 L 53.9 471.7 L 76.8 464.05 L 88.7 456.8 L 124.75 436.8 L 163.85 400.35 L 182.05 381.2 L 201.6 355.35 L 205.4 353.25 L 209.25 350.7 L 210.5 349 L 211.8 346.45 L 240.6 312.45 L 286.85 250.05 L 288.15 244.95 L 290.7 239 L 292.4 236.45 L 294.1 234.8 L 297.05 233.1 L 298.35 232.7 L 300.05 232.7 L 321.3 250.9 L 328.95 256 L 331.5 259.8 L 337.05 273.4 L 339.9 288.7 L 340.35 303.95 L 338.3 318.8 L 325.55 356.65 L 304.3 401.65 L 294.5 425.35 L 291.95 429.15 L 289 432.15 L 287.3 433.4 L 286 435.1 L 285.15 436.8 L 284.75 438.95 L 272.95 448.75 L 269.55 450.85 L 261.9 453.85 L 258.05 454.25 L 246.15 448.3 L 211.8 429.15 L 228.7 480.1 L 236.8 496.7 L 242.3 504.35 L 249.95 509.85 L 254.65 511.55 L 257.2 512 L 261.9 512 L 267 511.15 L 269.55 509.85 L 270.8 510.3 L 272.1 509.85 L 274.2 508.15 L 275.5 507.75 L 276.35 506.9 L 277.6 507.3 L 278.9 508.15 L 282.3 505.6 L 285.6 503.9 L 303.05 497.1 L 306 494.55 L 306.85 494.15 L 311.95 494.15 L 312.8 493.7 L 313.65 492.45 L 313.65 490.75 L 328.55 472.95 L 337.05 460.2 L 347.6 441.1 L 371.4 386.75 L 372.65 385.05 L 373.1 383.35 L 373.1 377.4 L 373.5 375.7 L 374.8 374.4 L 377.35 373.15 L 382.85 357 L 393.5 334.1 L 395.95 326.05 L 397.65 317.55 L 398.95 304.35 L 398.95 300.55 L 398.1 293.4 L 394.75 278.95 L 392.65 276.4 L 385 264.5 L 382.45 262.8 L 380.75 261.95 L 379.45 261.5 L 375.2 261.5 L 375.2 260.25 L 374.35 258.55 L 373.5 256 L 370.95 251.3 L 368 248.35"></path></g><g transform="scale(0.1714,0.1714) translate(195.5,1977)"><path d="M 73.95 1.05 L 73.45 0 L 72.65 0.25 L 72.15 0.8 L 71.9 1.3 L 71.1 2.1 L 71.1 1.85 L 70.85 1.3 L 68.8 0.25 L 67.8 0 L 67.8 1.85 L 68.55 4.15 L 70.1 4.7 L 71.1 4.45 L 71.9 3.65 L 72.95 3.15 L 73.7 2.6 L 73.95 1.85 L 73.95 1.05"></path><path d="M 116.55 17.2 L 116.55 17.7 L 117.1 17.7 L 116.55 17.2"></path><path d="M 145.15 22.4 L 145.4 21.6 L 145.15 20.8 L 144.35 20.05 L 142.25 26.55 L 143.3 26.55 L 143.05 25.75 L 143.3 25 L 144.6 23.4 L 145.15 22.4"></path><path d="M 148.5 22.9 L 148 23.15 L 147.5 24.2 L 147.5 24.7 L 147.75 25.5 L 149.8 25.5 L 149.55 24.7 L 149.55 23.95 L 149.8 23.4 L 149.55 22.9 L 148.5 22.9"></path><path d="M 192.7 31.95 L 193.2 30.9 L 193.2 29.9 L 192.7 30.2 L 192.4 30.7 L 192.4 31.45 L 192.7 31.95"></path><path d="M 274.5 72 L 273.45 69.4 L 273.2 67.85 L 269.3 65.25 L 248.25 53.3 L 239.95 47.8 L 237.65 48.85 L 236.6 48.35 L 236.6 47.8 L 237.1 46.8 L 237.35 46 L 237.1 45.2 L 236.6 44.45 L 235.05 46 L 234.25 46.5 L 233.45 46.8 L 231.9 46.8 L 225.15 45.5 L 223.3 45.5 L 223.05 44.45 L 223.3 43.9 L 223.85 43.65 L 226.95 43.65 L 227.75 43.4 L 228 42.1 L 228 41.05 L 227.75 40 L 226.7 38.45 L 225.9 37.65 L 224.35 36.65 L 223.6 37.15 L 223.05 37.65 L 222.3 38.7 L 222 40 L 222 41.05 L 219.7 44.2 L 218.1 45.2 L 217.35 45.5 L 216.55 45.5 L 215.5 44.2 L 215.25 43.65 L 215.5 43.4 L 216.3 43.4 L 218.1 42.9 L 218.65 42.6 L 218.9 42.35 L 218.9 41.85 L 218.65 41.05 L 212.15 36.65 L 209.8 34.3 L 209 33 L 208.75 32.2 L 207.45 32.45 L 206.95 33 L 206.7 33.5 L 207.7 35.6 L 207.7 37.65 L 206.7 37.95 L 205.95 38.7 L 205.15 39.25 L 204.65 38.95 L 204.4 38.7 L 203.35 37.95 L 202.3 36.9 L 201.8 35.85 L 201.8 35.05 L 202.05 34.3 L 199.7 34.8 L 195.3 37.65 L 194.25 37.65 L 196.6 28.9 L 193.2 32.2 L 192.95 31.95 L 192.7 31.95 L 191.65 33 L 190.35 33.75 L 189.05 34.3 L 187.75 34.3 L 187.5 34.05 L 187.2 33.5 L 186.45 33 L 185.4 32.75 L 184.35 33.25 L 185.4 41.05 L 184.35 41.05 L 183.05 41.3 L 181.25 42.1 L 179.4 42.35 L 178.5 42.35 L 192.15 46.5 L 206.7 55.1 L 214.2 58.75 L 222 61.1 L 230.6 70.2 L 235.55 73.85 L 238.15 75.4 L 243.8 77.75 L 246.4 79.3 L 251.35 83.2 L 261 93.35 L 262.55 97.5 L 264.9 106.55 L 265.65 113.3 L 265.4 118 L 264.9 120.1 L 262.3 126.85 L 261 128.9 L 255 134.1 L 245.1 145.3 L 238.65 151.05 L 237.1 151.55 L 235.8 151.55 L 234.5 151.3 L 233.45 150.75 L 232.45 150 L 230.85 147.65 L 230.35 148.15 L 229.55 148.7 L 228.8 149.75 L 227.75 150.75 L 227.25 151.05 L 226.45 151.05 L 225.4 150.5 L 224.35 149.75 L 222.3 147.4 L 219.95 142.2 L 217.35 141.15 L 210.6 136.7 L 193.7 123.2 L 191.1 121.65 L 188.8 120.6 L 183.3 118.8 L 182.8 117.2 L 182.3 116.15 L 181.5 115.4 L 180.7 114.85 L 179.7 114.85 L 173.15 116.95 L 172.2 116.95 L 169.85 116.45 L 168.8 115.65 L 167.75 114.35 L 167.75 112.8 L 167.25 111.5 L 166.2 110.2 L 163.35 107.6 L 161.25 104.75 L 161.25 103.95 L 161 103.15 L 156.3 102.9 L 147.5 103.7 L 140.95 102.9 L 136.85 101.85 L 119.2 93.1 L 117.35 92.55 L 115.25 92.3 L 113.2 92.3 L 111.1 90.2 L 109.05 88.65 L 106.95 87.6 L 100.25 85 L 86.95 82.15 L 80.75 79.3 L 78.9 77.75 L 75.25 77.2 L 72.15 75.65 L 66.75 71.25 L 63.9 69.4 L 61 68.35 L 59.7 68.1 L 57.9 68.35 L 56.35 68.9 L 54.5 69.95 L 51.15 68.9 L 44.65 68.1 L 38.4 68.9 L 35.6 69.95 L 30.1 73.3 L 30.1 75.9 L 30.65 78 L 31.4 79.8 L 32.7 81.1 L 34.3 81.9 L 37.85 83.2 L 51.15 84.75 L 53.2 85.55 L 56.6 87.6 L 60.25 87.6 L 63.6 88.4 L 78.65 95.7 L 82.3 96.7 L 83.85 98.3 L 87.75 100.3 L 89.85 101.1 L 106.95 104.45 L 108.75 105 L 112.65 106.55 L 118.9 109.95 L 140.95 118 L 149.8 122.15 L 151.9 122.15 L 155.55 122.7 L 159.95 125 L 165.7 128.9 L 168.8 130.5 L 170.65 131 L 172.45 131.25 L 174.5 131.25 L 176.55 131 L 183.6 136.45 L 185.4 137.5 L 187.5 138 L 189.8 138.3 L 192.15 137.75 L 194.5 141.4 L 200.75 146.6 L 211.1 152.85 L 214.2 155.45 L 215.5 157 L 216.55 158.85 L 217.85 164.3 L 218.1 166.9 L 217.6 168.65 L 206.2 177 L 198.65 181.4 L 194.5 182.95 L 188 183.5 L 183.3 182.95 L 174.2 183.25 L 169.85 182.7 L 167.75 182.2 L 167 182.7 L 165.95 183.25 L 165.15 183.5 L 164.4 183.5 L 162.8 183.25 L 158.15 180.9 L 156.85 180.65 L 156.05 180.65 L 155.55 181.15 L 154.25 179.85 L 151.65 178.3 L 147.2 177.5 L 141.5 177.25 L 137.4 176.45 L 135.8 175.95 L 133.2 174.4 L 108.25 169.2 L 98.95 166.4 L 94.5 164.3 L 92.2 164.55 L 88 164.05 L 82.05 162.2 L 71.1 155.7 L 64.4 151.05 L 60.75 150.25 L 50.35 146.6 L 30.35 137.25 L 19.7 134.4 L 11.9 133.85 L 7.75 134.4 L 5.9 135.7 L 5.15 136.45 L 4.6 137.5 L 4.1 139.3 L 3.85 141.15 L 4.1 145.05 L 3.85 147.15 L 3.3 148.95 L 10.1 154.65 L 13.75 157 L 25.7 161.15 L 59.2 166.1 L 66.75 168.65 L 67.8 170.25 L 69.35 171.55 L 71.1 172.55 L 75.8 173.6 L 83.35 173.35 L 86.45 174.4 L 105.15 183.25 L 108.75 184.25 L 118.15 189.75 L 128 193.1 L 151.9 199.35 L 161 204.3 L 163.6 204.3 L 165.95 204.8 L 172.65 208.2 L 175 209 L 176.3 209.25 L 178.65 209.25 L 185.15 206.9 L 191.1 206.1 L 197.35 205.6 L 203.35 204.3 L 204.65 204.55 L 208.5 203.8 L 217.85 199.35 L 221.75 198.6 L 223.3 198.85 L 227.5 202.75 L 229.85 206.65 L 232.7 207.15 L 236.85 209.25 L 238.15 210.8 L 239.2 212.6 L 240.25 216.5 L 240.5 218.85 L 240.25 233.15 L 240.95 237.55 L 241.75 239.35 L 243.05 244.8 L 243.8 260.45 L 244.35 264.05 L 245.4 267.7 L 244.6 271.35 L 244.1 277.85 L 244.6 284.1 L 246.4 294.25 L 246.95 295.8 L 246.95 300.5 L 245.9 310.3 L 245.9 313.7 L 246.4 316.8 L 246.95 318.4 L 247.7 319.95 L 246.95 320.45 L 246.4 321 L 245.65 322 L 245.4 323.35 L 245.4 324.35 L 244.6 325.65 L 243.55 332.45 L 243.55 333.45 L 243.05 334.25 L 244.6 339.45 L 245.65 349.6 L 245.9 370.4 L 246.4 375.3 L 245.65 392.2 L 243.8 401.55 L 243.8 405.45 L 244.85 415.85 L 244.85 419.25 L 244.35 422.9 L 243.8 424.7 L 243.05 426.55 L 243.55 428.9 L 243.55 430.95 L 242.25 439.55 L 240.25 447.55 L 239.7 451.7 L 239.7 453.8 L 240.25 457.7 L 240.95 459.8 L 239.95 462.1 L 238.95 468.9 L 239.95 477.75 L 242.8 491.5 L 243.05 496.45 L 242 497.75 L 241.2 499.3 L 240.95 500.6 L 241.5 505.55 L 241.5 507.1 L 240.95 508.65 L 240.95 509.4 L 241.2 509.95 L 241.75 510.45 L 245.4 512 L 247.2 511.5 L 248.75 510.45 L 251.35 507.85 L 255 503.5 L 256.55 502.2 L 257.85 500.35 L 258.65 498.8 L 259.7 493.85 L 257.6 482.15 L 257.6 478.75 L 258.65 475.4 L 259.45 473.8 L 261 468.35 L 261.25 464.7 L 263.05 454.05 L 263.6 452.25 L 264.35 450.65 L 266.45 447.55 L 262.05 435.4 L 262.8 433.8 L 263.35 432.25 L 263.85 428.9 L 263.6 425.75 L 261.75 416.4 L 261 409.9 L 262.55 407.8 L 263.05 406.5 L 263.35 405.45 L 263.6 402.85 L 263.05 395.05 L 263.35 392.45 L 265.4 387.8 L 265.95 385.45 L 265.65 383.35 L 263.05 374.25 L 263.05 372.15 L 262.05 369.9 L 261.75 368.85 L 262.05 363.1 L 263.05 361.3 L 263.6 359.75 L 263.85 357.9 L 263.6 356.35 L 258.65 345.95 L 258.15 342.85 L 258.9 339.45 L 259.95 337.65 L 262.05 323.35 L 261 320.7 L 260.2 315.8 L 261 308.25 L 262.05 303.35 L 262.05 297.1 L 259.7 264.6 L 259.95 253.15 L 259.45 251.85 L 259.45 247.95 L 260.75 240.15 L 260.75 238.85 L 260.2 236.75 L 259.45 235.7 L 258.65 235 L 257.6 234.45 L 257.6 233.15 L 258.65 233.7 L 258.4 220.95 L 258.15 218.6 L 257.6 216.5 L 256.55 214.45 L 256.85 212.6 L 257.35 211.05 L 257.35 209.25 L 257.1 208.45 L 256.55 207.7 L 257.1 204.8 L 256.85 198.85 L 253.7 187.4 L 253.2 184.25 L 253.2 182.2 L 254.5 174.65 L 256.85 170.5 L 257.85 169.45 L 259.7 168.15 L 261 167.6 L 264.1 162.45 L 267.75 157.55 L 289.3 134.1 L 293.2 128.9 L 293.7 127.9 L 293.95 127.1 L 293.95 125.55 L 293.7 123.7 L 291.9 119.8 L 290.85 115.65 L 290.85 113.3 L 293.7 110.2 L 294.25 108.65 L 294.5 107.05 L 294.5 105.5 L 294.25 103.7 L 290.85 97 L 285.9 88.4 L 285.15 85 L 284.6 83.7 L 283.05 81.1 L 281.2 79.05 L 277.05 75.4 L 275.25 73.3 L 274.5 72"></path><path d="M 164.1 30.2 L 163.35 29.9 L 165.15 33.75 L 166.2 35.35 L 166.9 36 L 166.7 35.6 L 165.95 31.95 L 165.4 30.9 L 164.65 30.2 L 164.1 30.2 M 166.9 36 L 167 36.35 L 167.25 36.65 L 167.75 36.65 L 167 36.1 L 166.9 36"></path><path d="M 135.8 247.15 L 131.65 247.45 L 118.4 246.4 L 110.05 244.3 L 90.35 246.4 L 73.95 246.9 L 68.8 246.65 L 67.25 245.85 L 61.3 244.55 L 53.45 244.3 L 48.8 245.35 L 31.15 246.4 L 26.75 247.15 L 24.9 247.7 L 20.75 249.75 L 18.95 251.05 L 17.65 250.05 L 16.05 249.5 L 14.5 249.25 L 12.95 249.25 L 9.55 250.05 L 4.9 251.6 L 2.55 254.2 L 1.8 255.75 L 0 263.3 L 0.25 264.6 L 1.05 265.35 L 3.05 265.9 L 4.35 265.9 L 5.65 266.15 L 6.95 266.65 L 7.75 267.7 L 12.7 268.75 L 22.55 269.55 L 47.75 268.75 L 52.7 269.8 L 67.5 270.85 L 96.35 270.3 L 110.6 270.85 L 125.4 273.2 L 129.3 272.4 L 132.95 272.15 L 149.05 274.2 L 157.6 274.5 L 159.95 273.95 L 162.05 272.65 L 165.4 271.1 L 166.7 271.1 L 169.3 269 L 170.35 267.7 L 171.15 266.4 L 171.65 264.85 L 172.2 259.9 L 169.6 257.3 L 166.45 254.95 L 159.45 251.35 L 144.35 245.35 L 135.8 247.15"></path></g><g transform="scale(0.1714,0.1714) translate(42.5,2615)"><path d="M 563.05 21.7 L 547.9 12.6 L 526.3 3.65 L 514.2 0 L 512.6 1.55 L 508.4 3.65 L 505.75 3.65 L 496.3 4.2 L 489.45 5.75 L 487.85 6.8 L 484.7 10 L 482.6 15.8 L 511.05 19.05 L 515.25 21.15 L 521.55 25.9 L 526.3 31.15 L 528.4 34.3 L 531.6 40.65 L 539.5 69.6 L 537.9 81.2 L 535.25 137.1 L 537.35 227.3 L 536.3 249.9 L 538.95 259.95 L 539.5 262.55 L 538.4 268.9 L 536.3 272.05 L 534.75 364.95 L 531.05 400.2 L 526.85 417.6 L 526.3 421.3 L 523.15 427.1 L 521.05 429.2 L 518.4 430.75 L 509.45 433.95 L 495.75 436.55 L 488.9 439.2 L 485.75 440.75 L 482.6 442.9 L 479.45 442.9 L 476.3 441.85 L 467.35 440.25 L 464.15 440.25 L 457.3 442.9 L 469.95 455.65 L 478.9 457.75 L 486.3 461.95 L 492.6 467.75 L 509.45 489.35 L 516.3 496.7 L 523.7 503 L 530 499.35 L 532.65 498.8 L 536.3 499.85 L 541.05 505.15 L 544.75 510.4 L 546.3 511.45 L 548.45 512 L 550.55 512 L 552.65 511.45 L 555.3 509.35 Q 566 502.8 576.75 496.2 L 586.75 488.8 L 592.05 483 L 593.6 479.85 L 595.2 471.45 L 594.65 467.2 L 593.1 461.95 L 592.05 455.1 L 593.1 448.25 L 599.95 429.2 L 600.45 426.05 L 600.45 423.4 L 599.95 420.25 L 598.35 417.1 L 596.25 414.45 L 593.1 411.3 L 595.7 396 L 596.25 380.75 L 592.05 327.45 L 592.05 312.7 L 596.25 291.1 L 593.6 276.35 L 589.4 217.8 L 591.5 113.4 L 591 66.45 L 589.95 50.65 L 583.6 40.65 L 576.25 32.2 L 563.05 21.7"></path><path d="M 176.3 30.65 L 166.85 31.15 L 158.4 33.25 L 154.7 34.85 L 163.15 35.9 L 170 39.05 L 182.65 47.5 L 183.15 51.15 L 186.3 60.65 L 188.4 70.65 L 188.4 75.4 L 186.3 80.65 L 184.75 83.3 L 182.65 85.4 L 185.25 90.65 L 187.9 101.2 L 186.85 116.6 L 182.1 136.05 L 181.05 145.55 L 181.05 150.3 L 183.7 159.75 L 186.3 164.5 L 183.7 169.75 L 177.35 177.65 L 165.25 186.1 L 126.3 200.4 L 116.8 205.7 L 120.5 207.8 L 124.7 208.3 L 134.2 207.8 L 154.7 202.5 L 157.9 204.1 L 164.2 204.1 L 170 201.45 L 172.6 199.35 L 182.1 189.9 L 186.3 186.6 L 188.4 185.55 L 191.05 185.05 L 193.15 185.55 L 195.25 186.6 L 201.6 180.3 L 220.55 117.65 L 225.3 94.35 L 225.8 79.1 L 223.2 64.35 L 220.55 56.95 L 215.8 48.55 L 212.65 44.85 L 205.25 39.05 L 195.8 34.3 L 186.3 31.7 L 176.3 30.65"></path><path d="M 344.75 32.75 L 341.05 31.7 L 333.65 31.7 L 324.7 34.85 L 333.15 48 L 335.25 52.2 L 337.9 61.15 L 341.55 80.15 L 343.15 137.65 L 344.75 146.6 L 349.45 163.95 L 356.85 176.6 L 359.45 180.3 L 367.9 184.5 L 385.8 189.9 L 394.25 190.95 L 412.05 190.4 L 428.9 186.6 L 424.65 184.5 L 419.95 182.95 L 403.1 180.3 L 389.5 180.3 L 384.75 179.25 L 377.4 175.55 L 372.1 170.3 L 366.3 159.25 L 363.7 145.55 L 362.65 126.6 L 363.7 122.35 L 365.25 118.7 L 370.55 113.95 L 376.85 110.8 L 402 107.1 L 409.9 105 L 413.1 103.4 L 416.25 101.2 L 378.45 98.05 L 372.65 90.65 L 368.95 83.3 L 367.9 74.35 L 368.95 63.3 L 357.9 44.3 L 353.15 38.55 L 350.5 36.4 L 344.75 32.75"></path><path d="M 12.65 91.7 L 12.65 225.7 L 15.8 319.55 L 12.1 326.9 L 7.35 344.3 L 4.75 372.85 L 6.3 392.3 L 0 398.65 L 0 408.1 L 2.1 413.4 L 3.7 416 L 6.3 418.65 L 9.45 420.75 L 18.4 400.2 L 25.25 379.7 L 26.3 314.3 L 23.7 249.9 L 22.1 169.75 L 25.25 120.25 L 24.2 118.7 L 23.15 116.6 L 22.1 111.85 L 20.55 98.55 L 18.95 94.9 L 17.9 93.85 L 16.3 92.75 L 12.65 91.7"></path><path d="M 119.45 100.15 L 113.1 100.15 L 110.5 101.2 L 114.7 138.15 L 116.8 148.7 L 119.45 147.65 L 121.55 146.05 L 123.1 144.5 L 124.7 142.4 L 126.8 138.7 L 130.5 122.9 L 131.55 121.85 L 132.6 120.25 L 129.95 116.6 L 126.8 108.7 L 124.7 105 L 122.6 102.25 L 119.45 100.15"></path><path d="M 374.2 242 L 352.65 223.6 L 337.35 215.15 L 326.8 211.5 L 315.75 209.35 L 310.5 209.35 L 299.95 210.95 L 295.2 212.55 L 289.95 215.15 L 293.1 217.8 L 301.55 220.95 L 305.75 221.5 L 313.15 223.6 L 323.65 229.9 L 327.85 234.1 L 331.05 238.35 L 335.25 248.35 L 337.9 265.7 L 338.95 289.5 L 340.5 300.6 L 337.35 317.95 L 334.7 355.9 L 331.05 373.35 L 329.45 377.6 L 324.2 384.4 L 317.85 389.15 L 314.2 391.25 L 291.55 398.1 L 280.5 402.85 L 277.3 404.95 L 301 410.75 L 306.8 410.75 L 312.6 409.7 L 317.85 406.55 L 319.95 404.45 L 321.55 401.8 L 325.25 404.95 L 328.4 407.05 L 331.05 408.1 L 336.3 408.1 L 338.95 407.05 L 343.65 403.4 L 357.35 389.15 L 362.65 386 L 363.7 378.1 L 365.8 371.25 L 378.95 346.95 L 381.05 340.1 L 381.6 336.4 L 381.6 332.2 L 386.35 282.7 L 385.8 269.95 L 384.75 264.15 L 381.05 252.55 L 374.2 242"></path><path d="M 205.8 263.1 L 204.2 264.15 L 203.15 265.2 L 202.1 266.75 L 201.6 267.85 L 201.6 272.55 L 204.75 282.15 L 204.75 284.8 L 202.65 290.6 L 200 302.15 L 200.55 313.75 L 202.65 324.8 L 217.9 362.85 L 220.55 373.35 L 236.35 373.35 L 238.45 366 L 241.1 348.5 L 241.6 320.05 L 239.5 300.6 L 236.85 299.55 L 232.15 295.85 L 226.35 288.45 L 216.35 271.5 L 212.65 266.75 L 207.9 262.55 L 205.8 263.1"></path><path d="M 275.2 299 L 278.35 301.1 L 280.5 303.75 L 287.3 303.75 L 294.7 302.7 L 297.35 301.65 L 298.9 300.05 L 298.9 297.4 L 297.85 295.85 L 296.3 294.25 L 286.8 290.6 L 275.75 289.5 L 265.2 290.6 L 255.2 294.25 L 258.9 296.35 L 275.2 299"></path></g></g></g></svg>